<mxfile host="app.diagrams.net" agent="Mozilla/5.0 (X11; Linux x86_64) AppleWebKit/537.36 (KHTML, like Gecko) Chrome/131.0.0.0 Safari/537.36" version="26.0.15">
  <diagram name="Página-1" id="to-UZ2ayehd21Elz7MB6">
    <mxGraphModel dx="806" dy="447" grid="1" gridSize="10" guides="1" tooltips="1" connect="1" arrows="1" fold="1" page="1" pageScale="1" pageWidth="827" pageHeight="1169" math="0" shadow="0">
      <root>
        <mxCell id="0" />
        <mxCell id="1" parent="0" />
        <mxCell id="DnXi2XR4kEX6GWDYVTOZ-2" value="" style="whiteSpace=wrap;html=1;aspect=fixed;" vertex="1" parent="1">
          <mxGeometry x="180" y="20" width="360" height="360" as="geometry" />
        </mxCell>
        <mxCell id="DnXi2XR4kEX6GWDYVTOZ-3" value="Administrador" style="shape=umlActor;verticalLabelPosition=bottom;verticalAlign=top;html=1;outlineConnect=0;" vertex="1" parent="1">
          <mxGeometry x="120" y="140" width="40" height="80" as="geometry" />
        </mxCell>
        <mxCell id="DnXi2XR4kEX6GWDYVTOZ-6" value="Manter Usuário" style="ellipse;whiteSpace=wrap;html=1;" vertex="1" parent="1">
          <mxGeometry x="200" y="40" width="80" height="40" as="geometry" />
        </mxCell>
        <mxCell id="DnXi2XR4kEX6GWDYVTOZ-9" value="" style="endArrow=classic;html=1;rounded=0;" edge="1" parent="1" source="DnXi2XR4kEX6GWDYVTOZ-3" target="DnXi2XR4kEX6GWDYVTOZ-6">
          <mxGeometry width="50" height="50" relative="1" as="geometry">
            <mxPoint x="390" y="240" as="sourcePoint" />
            <mxPoint x="440" y="190" as="targetPoint" />
          </mxGeometry>
        </mxCell>
        <mxCell id="DnXi2XR4kEX6GWDYVTOZ-10" value="Listar Usuários" style="ellipse;whiteSpace=wrap;html=1;" vertex="1" parent="1">
          <mxGeometry x="374" y="40" width="80" height="40" as="geometry" />
        </mxCell>
        <mxCell id="DnXi2XR4kEX6GWDYVTOZ-14" value="" style="endArrow=block;dashed=1;endFill=0;endSize=12;html=1;rounded=0;exitX=1;exitY=0.5;exitDx=0;exitDy=0;entryX=0;entryY=0.5;entryDx=0;entryDy=0;" edge="1" parent="1" source="DnXi2XR4kEX6GWDYVTOZ-6" target="DnXi2XR4kEX6GWDYVTOZ-10">
          <mxGeometry width="160" relative="1" as="geometry">
            <mxPoint x="330" y="210" as="sourcePoint" />
            <mxPoint x="490" y="210" as="targetPoint" />
          </mxGeometry>
        </mxCell>
      </root>
    </mxGraphModel>
  </diagram>
</mxfile>
